<?xml version="1.0" standalone="no"?>
<!DOCTYPE svg PUBLIC "-//W3C//DTD SVG 20010904//EN"
 "http://www.w3.org/TR/2001/REC-SVG-20010904/DTD/svg10.dtd">
<svg version="1.0" xmlns="http://www.w3.org/2000/svg"
 width="100.000000pt" height="100.000000pt" viewBox="0 0 100.000000 100.000000"
 preserveAspectRatio="xMidYMid meet">

<g transform="translate(0.000000,100.000000) scale(0.100000,-0.100000)"
fill="#000000" stroke="none">
<path d="M375 936 c-131 -43 -227 -126 -284 -245 -35 -74 -36 -80 -36 -191 0
-111 1 -117 36 -191 23 -48 55 -94 89 -129 35 -34 81 -66 129 -89 74 -35 80
-36 191 -36 111 0 117 1 191 36 99 48 170 119 218 218 35 74 36 80 36 191 0
111 -1 117 -36 191 -48 100 -119 170 -218 218 -69 33 -85 36 -176 38 -63 2
-115 -2 -140 -11z m301 -72 c75 -35 152 -112 190 -189 27 -56 29 -68 29 -175
0 -107 -2 -119 -29 -175 -38 -77 -114 -153 -191 -191 -56 -27 -68 -29 -175
-29 -107 0 -119 2 -175 29 -120 59 -211 186 -222 308 l-6 58 47 0 46 0 0 -38
c0 -51 51 -152 97 -193 123 -107 303 -107 426 0 20 18 50 60 67 93 56 114 37
252 -49 351 -41 46 -142 97 -193 97 l-38 0 0 46 0 47 58 -6 c34 -3 84 -17 118
-33z m-61 -128 c95 -45 144 -126 145 -236 0 -154 -106 -260 -260 -260 -154 0
-260 106 -260 260 1 154 106 260 260 260 48 0 78 -7 115 -24z"/>
</g>
</svg>
